<mxfile host="65bd71144e">
    <diagram id="fwwoC0XGlDoKWw0Vtck5" name="Définition projet">
        <mxGraphModel dx="1074" dy="774" grid="1" gridSize="10" guides="1" tooltips="1" connect="1" arrows="1" fold="1" page="1" pageScale="1" pageWidth="827" pageHeight="1169" math="0" shadow="0">
            <root>
                <mxCell id="0"/>
                <mxCell id="1" parent="0"/>
                <mxCell id="5hIx9OEpgBDDUyNXLqM4-1" value="" style="rounded=0;whiteSpace=wrap;html=1;" parent="1" vertex="1">
                    <mxGeometry x="260" y="40" width="490" height="570" as="geometry"/>
                </mxCell>
                <mxCell id="5hIx9OEpgBDDUyNXLqM4-2" value="réferencer toutes les salles de cinéma de Québec tout en proposant un moyen simple de filtrer sur un dispositif d'accessibilité" style="ellipse;whiteSpace=wrap;html=1;" parent="1" vertex="1">
                    <mxGeometry x="450" y="60" width="160" height="110" as="geometry"/>
                </mxCell>
                <mxCell id="5hIx9OEpgBDDUyNXLqM4-3" value="catégoriser les différents types de dispositifs" style="ellipse;whiteSpace=wrap;html=1;" parent="1" vertex="1">
                    <mxGeometry x="620" y="130" width="120" height="80" as="geometry"/>
                </mxCell>
                <mxCell id="5hIx9OEpgBDDUyNXLqM4-4" value="faire une recherche&lt;br&gt;" style="ellipse;whiteSpace=wrap;html=1;" parent="1" vertex="1">
                    <mxGeometry x="280" y="200" width="120" height="80" as="geometry"/>
                </mxCell>
                <mxCell id="5hIx9OEpgBDDUyNXLqM4-38" style="edgeStyle=none;html=1;entryX=0;entryY=0;entryDx=0;entryDy=0;" parent="1" source="5hIx9OEpgBDDUyNXLqM4-5" target="5hIx9OEpgBDDUyNXLqM4-6" edge="1">
                    <mxGeometry relative="1" as="geometry"/>
                </mxCell>
                <mxCell id="5hIx9OEpgBDDUyNXLqM4-5" value="filtrer par&amp;nbsp;" style="ellipse;whiteSpace=wrap;html=1;" parent="1" vertex="1">
                    <mxGeometry x="354" y="290" width="120" height="80" as="geometry"/>
                </mxCell>
                <mxCell id="5hIx9OEpgBDDUyNXLqM4-6" value="filtre" style="swimlane;fontStyle=0;childLayout=stackLayout;horizontal=1;startSize=30;horizontalStack=0;resizeParent=1;resizeParentMax=0;resizeLast=0;collapsible=1;marginBottom=0;whiteSpace=wrap;html=1;" parent="1" vertex="1">
                    <mxGeometry x="490" y="220" width="140" height="150" as="geometry"/>
                </mxCell>
                <mxCell id="5hIx9OEpgBDDUyNXLqM4-7" value="proximité" style="text;strokeColor=none;fillColor=none;align=left;verticalAlign=middle;spacingLeft=4;spacingRight=4;overflow=hidden;points=[[0,0.5],[1,0.5]];portConstraint=eastwest;rotatable=0;whiteSpace=wrap;html=1;" parent="5hIx9OEpgBDDUyNXLqM4-6" vertex="1">
                    <mxGeometry y="30" width="140" height="30" as="geometry"/>
                </mxCell>
                <mxCell id="5hIx9OEpgBDDUyNXLqM4-8" value="type de dispositif" style="text;strokeColor=none;fillColor=none;align=left;verticalAlign=middle;spacingLeft=4;spacingRight=4;overflow=hidden;points=[[0,0.5],[1,0.5]];portConstraint=eastwest;rotatable=0;whiteSpace=wrap;html=1;" parent="5hIx9OEpgBDDUyNXLqM4-6" vertex="1">
                    <mxGeometry y="60" width="140" height="30" as="geometry"/>
                </mxCell>
                <mxCell id="5hIx9OEpgBDDUyNXLqM4-9" value="évenement (avant-première)" style="text;strokeColor=none;fillColor=none;align=left;verticalAlign=middle;spacingLeft=4;spacingRight=4;overflow=hidden;points=[[0,0.5],[1,0.5]];portConstraint=eastwest;rotatable=0;whiteSpace=wrap;html=1;" parent="5hIx9OEpgBDDUyNXLqM4-6" vertex="1">
                    <mxGeometry y="90" width="140" height="30" as="geometry"/>
                </mxCell>
                <mxCell id="5hIx9OEpgBDDUyNXLqM4-42" value="résa en ligne" style="text;strokeColor=none;fillColor=none;align=left;verticalAlign=middle;spacingLeft=4;spacingRight=4;overflow=hidden;points=[[0,0.5],[1,0.5]];portConstraint=eastwest;rotatable=0;whiteSpace=wrap;html=1;" parent="5hIx9OEpgBDDUyNXLqM4-6" vertex="1">
                    <mxGeometry y="120" width="140" height="30" as="geometry"/>
                </mxCell>
                <mxCell id="5hIx9OEpgBDDUyNXLqM4-10" value="définir un itinéraire par rapport à notre localisation" style="ellipse;whiteSpace=wrap;html=1;" parent="1" vertex="1">
                    <mxGeometry x="600" y="505" width="120" height="80" as="geometry"/>
                </mxCell>
                <mxCell id="5hIx9OEpgBDDUyNXLqM4-11" value="" style="rounded=0;whiteSpace=wrap;html=1;" parent="1" vertex="1">
                    <mxGeometry x="870" y="150" width="400" height="140" as="geometry"/>
                </mxCell>
                <mxCell id="5hIx9OEpgBDDUyNXLqM4-13" value="Nom de la salle" style="rounded=1;whiteSpace=wrap;html=1;" parent="1" vertex="1">
                    <mxGeometry x="880" y="160" width="370" height="60" as="geometry"/>
                </mxCell>
                <mxCell id="5hIx9OEpgBDDUyNXLqM4-14" value="" style="ellipse;whiteSpace=wrap;html=1;aspect=fixed;" parent="1" vertex="1">
                    <mxGeometry x="1011" y="235" width="40" height="40" as="geometry"/>
                </mxCell>
                <mxCell id="5hIx9OEpgBDDUyNXLqM4-15" value="" style="ellipse;whiteSpace=wrap;html=1;aspect=fixed;" parent="1" vertex="1">
                    <mxGeometry x="1061" y="235" width="40" height="40" as="geometry"/>
                </mxCell>
                <mxCell id="5hIx9OEpgBDDUyNXLqM4-16" value="" style="ellipse;whiteSpace=wrap;html=1;aspect=fixed;" parent="1" vertex="1">
                    <mxGeometry x="1111" y="235" width="40" height="40" as="geometry"/>
                </mxCell>
                <mxCell id="5hIx9OEpgBDDUyNXLqM4-17" value="localisation" style="text;html=1;strokeColor=none;fillColor=none;align=center;verticalAlign=middle;whiteSpace=wrap;rounded=0;" parent="1" vertex="1">
                    <mxGeometry x="881" y="240" width="140" height="30" as="geometry"/>
                </mxCell>
                <mxCell id="5hIx9OEpgBDDUyNXLqM4-18" value="evenement" style="ellipse;whiteSpace=wrap;html=1;" parent="1" vertex="1">
                    <mxGeometry x="1180" y="235" width="60" height="40" as="geometry"/>
                </mxCell>
                <mxCell id="5hIx9OEpgBDDUyNXLqM4-19" value="" style="rounded=0;whiteSpace=wrap;html=1;" parent="1" vertex="1">
                    <mxGeometry x="870" y="330" width="400" height="140" as="geometry"/>
                </mxCell>
                <mxCell id="5hIx9OEpgBDDUyNXLqM4-20" value="Nom de la salle" style="rounded=1;whiteSpace=wrap;html=1;" parent="1" vertex="1">
                    <mxGeometry x="890" y="350" width="130" height="60" as="geometry"/>
                </mxCell>
                <mxCell id="5hIx9OEpgBDDUyNXLqM4-21" value="" style="ellipse;whiteSpace=wrap;html=1;aspect=fixed;" parent="1" vertex="1">
                    <mxGeometry x="1035" y="350" width="70" height="70" as="geometry"/>
                </mxCell>
                <mxCell id="5hIx9OEpgBDDUyNXLqM4-22" value="" style="ellipse;whiteSpace=wrap;html=1;aspect=fixed;" parent="1" vertex="1">
                    <mxGeometry x="1110" y="350" width="70" height="70" as="geometry"/>
                </mxCell>
                <mxCell id="5hIx9OEpgBDDUyNXLqM4-23" value="" style="ellipse;whiteSpace=wrap;html=1;aspect=fixed;" parent="1" vertex="1">
                    <mxGeometry x="1190" y="350" width="70" height="70" as="geometry"/>
                </mxCell>
                <mxCell id="5hIx9OEpgBDDUyNXLqM4-24" value="localisation" style="text;html=1;strokeColor=none;fillColor=none;align=center;verticalAlign=middle;whiteSpace=wrap;rounded=0;" parent="1" vertex="1">
                    <mxGeometry x="920" y="435" width="11" height="10" as="geometry"/>
                </mxCell>
                <mxCell id="5hIx9OEpgBDDUyNXLqM4-25" value="evenement" style="ellipse;whiteSpace=wrap;html=1;" parent="1" vertex="1">
                    <mxGeometry x="1124.5" y="430" width="41" height="20" as="geometry"/>
                </mxCell>
                <mxCell id="5hIx9OEpgBDDUyNXLqM4-30" value="" style="rounded=0;whiteSpace=wrap;html=1;" parent="1" vertex="1">
                    <mxGeometry x="860" y="505" width="400" height="140" as="geometry"/>
                </mxCell>
                <mxCell id="5hIx9OEpgBDDUyNXLqM4-31" value="Nom de la salle" style="rounded=1;whiteSpace=wrap;html=1;" parent="1" vertex="1">
                    <mxGeometry x="881" y="515" width="130" height="60" as="geometry"/>
                </mxCell>
                <mxCell id="5hIx9OEpgBDDUyNXLqM4-35" value="localisation" style="text;html=1;strokeColor=none;fillColor=none;align=center;verticalAlign=middle;whiteSpace=wrap;rounded=0;" parent="1" vertex="1">
                    <mxGeometry x="1064.5" y="533.5" width="161" height="43" as="geometry"/>
                </mxCell>
                <mxCell id="5hIx9OEpgBDDUyNXLqM4-36" value="evenement" style="ellipse;whiteSpace=wrap;html=1;" parent="1" vertex="1">
                    <mxGeometry x="1124.5" y="600" width="41" height="25" as="geometry"/>
                </mxCell>
                <mxCell id="5hIx9OEpgBDDUyNXLqM4-39" style="edgeStyle=none;html=1;" parent="1" source="5hIx9OEpgBDDUyNXLqM4-7" edge="1">
                    <mxGeometry relative="1" as="geometry">
                        <mxPoint x="840" y="400" as="targetPoint"/>
                    </mxGeometry>
                </mxCell>
                <mxCell id="5hIx9OEpgBDDUyNXLqM4-40" style="edgeStyle=none;html=1;entryX=0;entryY=0.5;entryDx=0;entryDy=0;" parent="1" source="5hIx9OEpgBDDUyNXLqM4-7" target="5hIx9OEpgBDDUyNXLqM4-11" edge="1">
                    <mxGeometry relative="1" as="geometry"/>
                </mxCell>
                <mxCell id="5hIx9OEpgBDDUyNXLqM4-41" style="edgeStyle=none;html=1;entryX=0;entryY=0.5;entryDx=0;entryDy=0;" parent="1" source="5hIx9OEpgBDDUyNXLqM4-9" target="5hIx9OEpgBDDUyNXLqM4-30" edge="1">
                    <mxGeometry relative="1" as="geometry"/>
                </mxCell>
                <mxCell id="5hIx9OEpgBDDUyNXLqM4-43" value="réferencer les boites de production cinématographique de Québec tout en proposant un moyen simple de filtrer sur" style="ellipse;whiteSpace=wrap;html=1;" parent="1" vertex="1">
                    <mxGeometry x="270" y="80" width="160" height="110" as="geometry"/>
                </mxCell>
                <mxCell id="5hIx9OEpgBDDUyNXLqM4-46" value="" style="edgeStyle=none;html=1;" parent="1" source="5hIx9OEpgBDDUyNXLqM4-44" target="5hIx9OEpgBDDUyNXLqM4-45" edge="1">
                    <mxGeometry relative="1" as="geometry"/>
                </mxCell>
                <mxCell id="5hIx9OEpgBDDUyNXLqM4-44" value="informer / sensibiliser sur des thématiques" style="ellipse;whiteSpace=wrap;html=1;" parent="1" vertex="1">
                    <mxGeometry x="310" y="400" width="120" height="80" as="geometry"/>
                </mxCell>
                <mxCell id="5hIx9OEpgBDDUyNXLqM4-45" value="centraliser les guides, ressources" style="ellipse;whiteSpace=wrap;html=1;" parent="1" vertex="1">
                    <mxGeometry x="310" y="515" width="120" height="80" as="geometry"/>
                </mxCell>
                <mxCell id="OQbWbZVuSF4VqCmQiVxv-4" value="" style="ellipse;whiteSpace=wrap;html=1;aspect=fixed;" parent="1" vertex="1">
                    <mxGeometry x="876" y="592.5" width="40" height="40" as="geometry"/>
                </mxCell>
                <mxCell id="OQbWbZVuSF4VqCmQiVxv-5" value="" style="ellipse;whiteSpace=wrap;html=1;aspect=fixed;" parent="1" vertex="1">
                    <mxGeometry x="926" y="592.5" width="40" height="40" as="geometry"/>
                </mxCell>
                <mxCell id="OQbWbZVuSF4VqCmQiVxv-6" value="" style="ellipse;whiteSpace=wrap;html=1;aspect=fixed;" parent="1" vertex="1">
                    <mxGeometry x="976" y="592.5" width="40" height="40" as="geometry"/>
                </mxCell>
            </root>
        </mxGraphModel>
    </diagram>
    <diagram id="dHGILp2OkYVs7BhuRb62" name="Méthodologie agile">
        <mxGraphModel dx="859" dy="619" grid="1" gridSize="10" guides="1" tooltips="1" connect="1" arrows="1" fold="1" page="1" pageScale="1" pageWidth="827" pageHeight="1169" math="0" shadow="0">
            <root>
                <mxCell id="0"/>
                <mxCell id="1" parent="0"/>
                <mxCell id="Z78Yq6zUMQYAvOTBJKBq-2" value="" style="edgeStyle=none;html=1;entryX=0.5;entryY=0;entryDx=0;entryDy=0;" parent="1" source="9-6VtOYfjbMC1Kedc_5_-1" target="Z78Yq6zUMQYAvOTBJKBq-1" edge="1">
                    <mxGeometry relative="1" as="geometry"/>
                </mxCell>
                <mxCell id="9-6VtOYfjbMC1Kedc_5_-1" value="tu as une idée" style="rounded=1;whiteSpace=wrap;html=1;" parent="1" vertex="1">
                    <mxGeometry x="354" y="70" width="120" height="60" as="geometry"/>
                </mxCell>
                <mxCell id="Z78Yq6zUMQYAvOTBJKBq-23" style="edgeStyle=none;html=1;entryX=0.5;entryY=0;entryDx=0;entryDy=0;" parent="1" source="Z78Yq6zUMQYAvOTBJKBq-1" target="Z78Yq6zUMQYAvOTBJKBq-6" edge="1">
                    <mxGeometry relative="1" as="geometry"/>
                </mxCell>
                <mxCell id="Z78Yq6zUMQYAvOTBJKBq-24" style="edgeStyle=none;html=1;entryX=0.5;entryY=0;entryDx=0;entryDy=0;" parent="1" source="Z78Yq6zUMQYAvOTBJKBq-1" target="Z78Yq6zUMQYAvOTBJKBq-3" edge="1">
                    <mxGeometry relative="1" as="geometry"/>
                </mxCell>
                <mxCell id="Z78Yq6zUMQYAvOTBJKBq-1" value="Quelle approche ?" style="rhombus;whiteSpace=wrap;html=1;rounded=1;fillColor=#f0a30a;fontColor=#000000;strokeColor=#BD7000;" parent="1" vertex="1">
                    <mxGeometry x="374" y="200" width="80" height="80" as="geometry"/>
                </mxCell>
                <mxCell id="Z78Yq6zUMQYAvOTBJKBq-5" value="" style="edgeStyle=none;html=1;" parent="1" source="Z78Yq6zUMQYAvOTBJKBq-3" target="Z78Yq6zUMQYAvOTBJKBq-4" edge="1">
                    <mxGeometry relative="1" as="geometry"/>
                </mxCell>
                <mxCell id="Z78Yq6zUMQYAvOTBJKBq-3" value="ancienne méthode :&lt;br&gt;cahier des charges le plus détaillé avant de poser la première ligne de code" style="rounded=1;whiteSpace=wrap;html=1;" parent="1" vertex="1">
                    <mxGeometry x="200" y="310" width="130" height="100" as="geometry"/>
                </mxCell>
                <mxCell id="Z78Yq6zUMQYAvOTBJKBq-4" value="découpe ton projet en 3 grosses étapes" style="whiteSpace=wrap;html=1;rounded=1;" parent="1" vertex="1">
                    <mxGeometry x="205" y="510" width="120" height="60" as="geometry"/>
                </mxCell>
                <mxCell id="Z78Yq6zUMQYAvOTBJKBq-8" value="" style="edgeStyle=none;html=1;" parent="1" source="Z78Yq6zUMQYAvOTBJKBq-6" target="Z78Yq6zUMQYAvOTBJKBq-7" edge="1">
                    <mxGeometry relative="1" as="geometry"/>
                </mxCell>
                <mxCell id="Z78Yq6zUMQYAvOTBJKBq-6" value="méthode agile" style="rounded=1;whiteSpace=wrap;html=1;" parent="1" vertex="1">
                    <mxGeometry x="510" y="310" width="120" height="60" as="geometry"/>
                </mxCell>
                <mxCell id="Z78Yq6zUMQYAvOTBJKBq-13" style="edgeStyle=none;html=1;exitX=1;exitY=0.5;exitDx=0;exitDy=0;" parent="1" source="Z78Yq6zUMQYAvOTBJKBq-7" target="Z78Yq6zUMQYAvOTBJKBq-9" edge="1">
                    <mxGeometry relative="1" as="geometry">
                        <mxPoint x="766" y="480" as="sourcePoint"/>
                    </mxGeometry>
                </mxCell>
                <mxCell id="Z78Yq6zUMQYAvOTBJKBq-14" value="Tu soumets&amp;nbsp;" style="edgeLabel;html=1;align=center;verticalAlign=middle;resizable=0;points=[];" parent="Z78Yq6zUMQYAvOTBJKBq-13" vertex="1" connectable="0">
                    <mxGeometry x="-0.2341" y="1" relative="1" as="geometry">
                        <mxPoint x="3" y="-9" as="offset"/>
                    </mxGeometry>
                </mxCell>
                <mxCell id="Z78Yq6zUMQYAvOTBJKBq-25" style="edgeStyle=none;html=1;exitX=1;exitY=0.5;exitDx=0;exitDy=0;" parent="1" source="Z78Yq6zUMQYAvOTBJKBq-7" target="Z78Yq6zUMQYAvOTBJKBq-9" edge="1">
                    <mxGeometry relative="1" as="geometry"/>
                </mxCell>
                <mxCell id="Z78Yq6zUMQYAvOTBJKBq-7" value="tu définis des grosses fonctionnalités (afficher et rechercher des salles de cinéma, afficher et rechercher des studios de production, filtrer et modifier l'affichage selon les choix de l'utilisateur" style="whiteSpace=wrap;html=1;rounded=1;" parent="1" vertex="1">
                    <mxGeometry x="440" y="450" width="260" height="60" as="geometry"/>
                </mxCell>
                <mxCell id="Z78Yq6zUMQYAvOTBJKBq-16" value="" style="edgeStyle=none;html=1;" parent="1" source="Z78Yq6zUMQYAvOTBJKBq-9" target="Z78Yq6zUMQYAvOTBJKBq-15" edge="1">
                    <mxGeometry relative="1" as="geometry"/>
                </mxCell>
                <mxCell id="Z78Yq6zUMQYAvOTBJKBq-9" value="Client" style="shape=umlActor;verticalLabelPosition=top;verticalAlign=bottom;html=1;outlineConnect=0;labelPosition=center;align=center;" parent="1" vertex="1">
                    <mxGeometry x="796" y="450" width="30" height="60" as="geometry"/>
                </mxCell>
                <mxCell id="Z78Yq6zUMQYAvOTBJKBq-18" value="non" style="edgeStyle=none;html=1;fillColor=#a20025;strokeColor=#6F0000;" parent="1" source="Z78Yq6zUMQYAvOTBJKBq-15" target="Z78Yq6zUMQYAvOTBJKBq-17" edge="1">
                    <mxGeometry relative="1" as="geometry"/>
                </mxCell>
                <mxCell id="Z78Yq6zUMQYAvOTBJKBq-20" value="oui" style="edgeStyle=none;html=1;entryX=0;entryY=0.5;entryDx=0;entryDy=0;fillColor=#008a00;strokeColor=#005700;" parent="1" source="Z78Yq6zUMQYAvOTBJKBq-15" target="Z78Yq6zUMQYAvOTBJKBq-19" edge="1">
                    <mxGeometry relative="1" as="geometry"/>
                </mxCell>
                <mxCell id="Z78Yq6zUMQYAvOTBJKBq-15" value="&lt;br&gt;&lt;br&gt;Cela convient il ?" style="rhombus;whiteSpace=wrap;html=1;verticalAlign=top;fillColor=#f0a30a;fontColor=#000000;strokeColor=#BD7000;" parent="1" vertex="1">
                    <mxGeometry x="758.5" y="610" width="105" height="80" as="geometry"/>
                </mxCell>
                <mxCell id="Z78Yq6zUMQYAvOTBJKBq-21" style="edgeStyle=none;html=1;entryX=0.5;entryY=1;entryDx=0;entryDy=0;" parent="1" source="Z78Yq6zUMQYAvOTBJKBq-17" target="Z78Yq6zUMQYAvOTBJKBq-7" edge="1">
                    <mxGeometry relative="1" as="geometry"/>
                </mxCell>
                <mxCell id="Z78Yq6zUMQYAvOTBJKBq-17" value="On redefinit ce qui ne va pas" style="whiteSpace=wrap;html=1;verticalAlign=top;" parent="1" vertex="1">
                    <mxGeometry x="510" y="620" width="120" height="60" as="geometry"/>
                </mxCell>
                <mxCell id="Z78Yq6zUMQYAvOTBJKBq-19" value="&#10;&lt;span style=&quot;color: rgb(240, 240, 240); font-family: Helvetica; font-size: 12px; font-style: normal; font-variant-ligatures: normal; font-variant-caps: normal; font-weight: 400; letter-spacing: normal; orphans: 2; text-align: center; text-indent: 0px; text-transform: none; widows: 2; word-spacing: 0px; -webkit-text-stroke-width: 0px; background-color: rgb(42, 37, 47); text-decoration-thickness: initial; text-decoration-style: initial; text-decoration-color: initial; float: none; display: inline !important;&quot;&gt;On passe à l'étape suivante&lt;/span&gt;&#10;&#10;" style="whiteSpace=wrap;html=1;verticalAlign=top;" parent="1" vertex="1">
                    <mxGeometry x="916" y="620" width="120" height="60" as="geometry"/>
                </mxCell>
            </root>
        </mxGraphModel>
    </diagram>
</mxfile>